HIERARCHY
ROOT Hips
{
	OFFSET 0.00000 0.00000 0.00000
	CHANNELS 6 Xposition Yposition Zposition Zrotation Yrotation Xrotation 
	JOINT LHipJoint
	{
		OFFSET 0 0 0
		CHANNELS 3 Zrotation Yrotation Xrotation
		JOINT LeftUpLeg
		{
			OFFSET 1.62964 -1.40469 0.78906
			CHANNELS 3 Zrotation Yrotation Xrotation
			JOINT LeftLeg
			{
				OFFSET 2.29640 -6.30932 0.00000
				CHANNELS 3 Zrotation Yrotation Xrotation
				JOINT LeftFoot
				{
					OFFSET 2.29451 -6.30412 0.00000
					CHANNELS 3 Zrotation Yrotation Xrotation
					JOINT LeftToeBase
					{
						OFFSET 0.03611 -0.09921 1.56387
						CHANNELS 3 Zrotation Yrotation Xrotation
						End Site
						{
							OFFSET 0.00000 -0.00000 0.80291
						}
					}
				}
			}
		}
	}
	JOINT RHipJoint
	{
		OFFSET 0 0 0
		CHANNELS 3 Zrotation Yrotation Xrotation
		JOINT RightUpLeg
		{
			OFFSET -1.73712 -1.40469 0.78906
			CHANNELS 3 Zrotation Yrotation Xrotation
			JOINT RightLeg
			{
				OFFSET -2.28137 -6.26801 0.00000
				CHANNELS 3 Zrotation Yrotation Xrotation
				JOINT RightFoot
				{
					OFFSET -2.28681 -6.28298 0.00000
					CHANNELS 3 Zrotation Yrotation Xrotation
					JOINT RightToeBase
					{
						OFFSET -0.15927 -0.43759 1.61103
						CHANNELS 3 Zrotation Yrotation Xrotation
						End Site
						{
							OFFSET -0.00000 -0.00000 0.84630
						}
					}
				}
			}
		}
	}
	JOINT LowerBack
	{
		OFFSET 0 0 0
		CHANNELS 3 Zrotation Yrotation Xrotation
		JOINT Spine
		{
			OFFSET -0.04227 2.04338 -0.00225
			CHANNELS 3 Zrotation Yrotation Xrotation
			JOINT Spine1
			{
				OFFSET -0.02148 2.04482 -0.04273
				CHANNELS 3 Zrotation Yrotation Xrotation
				JOINT Neck
				{
					OFFSET 0 0 0
					CHANNELS 3 Zrotation Yrotation Xrotation
					JOINT Neck1
					{
						OFFSET 0.09180 1.44629 0.19359
						CHANNELS 3 Zrotation Yrotation Xrotation
						JOINT Head
						{
							OFFSET 0.00887 1.40645 0.14750
							CHANNELS 3 Zrotation Yrotation Xrotation
							End Site
							{
								OFFSET -0.00669 1.50671 0.03707
							}
						}
					}
				}
				JOINT LeftShoulder
				{
					OFFSET 0 0 0
					CHANNELS 3 Zrotation Yrotation Xrotation
					JOINT LeftArm
					{
						OFFSET 2.17674 1.86763 -0.06520
						CHANNELS 3 Zrotation Yrotation Xrotation
						JOINT LeftForeArm
						{
							OFFSET 4.65776 -0.00000 0.00000
							CHANNELS 3 Zrotation Yrotation Xrotation
							JOINT LeftHand
							{
								OFFSET 3.55539 -0.00000 0.00000
								CHANNELS 3 Zrotation Yrotation Xrotation
								JOINT LeftFingerBase
								{
									OFFSET 0 0 0
									CHANNELS 3 Zrotation Yrotation Xrotation
									JOINT LeftHandIndex1
									{
										OFFSET 0.70726 -0.00000 0.00000
										CHANNELS 3 Zrotation Yrotation Xrotation
										End Site
										{
											OFFSET 0.57022 -0.00000 0.00000
										}
									}
								}
								JOINT LThumb
								{
									OFFSET 0 0 0
									CHANNELS 3 Zrotation Yrotation Xrotation
									End Site
									{
										OFFSET 0.57892 -0.00000 0.57892
									}
								}
							}
						}
					}
				}
				JOINT RightShoulder
				{
					OFFSET 0 0 0
					CHANNELS 3 Zrotation Yrotation Xrotation
					JOINT RightArm
					{
						OFFSET -2.80694 1.55459 -0.32496
						CHANNELS 3 Zrotation Yrotation Xrotation
						JOINT RightForeArm
						{
							OFFSET -4.71925 -0.00000 -0.00000
							CHANNELS 3 Zrotation Yrotation Xrotation
							JOINT RightHand
							{
								OFFSET -3.56990 -0.00000 0.00000
								CHANNELS 3 Zrotation Yrotation Xrotation
								JOINT RightFingerBase
								{
									OFFSET 0 0 0
									CHANNELS 3 Zrotation Yrotation Xrotation
									JOINT RightHandIndex1
									{
										OFFSET -0.50776 -0.00000 0.00000
										CHANNELS 3 Zrotation Yrotation Xrotation
										End Site
										{
											OFFSET -0.40937 -0.00000 0.00000
										}
									}
								}
								JOINT RThumb
								{
									OFFSET 0 0 0
									CHANNELS 3 Zrotation Yrotation Xrotation
									End Site
									{
										OFFSET -0.41562 -0.00000 0.41562
									}
								}
							}
						}
					}
				}
			}
		}
	}
}
MOTION
Frames: 15
Frame Time: .0083333
19.1375 16.4303 36.3928 0 0 0 0 0 0 -21 0 0 0 0 0 0 0 0 0 0 0 0 0 0 21 0 0 0 0 0 0 0 0 0 0 0 0 0 0 0 0 0 0 0 0 0 0 -16 0 0 21 0 0 11 0 0 0 -8 0 0 0 0 0 0 0 0 0 0 0 0 0 0 0 0 0 0 0 0 8 0 0 0 0 0 0 0 0 0 0 0 0 0 0 0 0 0
19.1375 16.4303 36.3928 178.4770 -2.3770 -154.3900 0.0000 0.0000 0.0000 -19.4907 -15.6028 -17.4470 0.1213 2.2450 6.1832 0.1698 -2.4431 -7.3208 3.1341 -10.9090 -31.9737 0.0000 0.0000 0.0000 17.7052 12.6971 -16.0632 -0.0556 -1.5221 4.1867 -1.0951 -1.8709 -20.5264 -4.1653 12.3772 -37.0798 -6.6630 -1.5277 -29.3718 -0.7160 -0.6111 -2.4615 2.5297 -0.9783 12.7265 2.8670 -1.1904 -2.1016 0.3953 -1.6868 0.5026 -0.3658 -0.8428 0.4760 0.0000 -0.0000 0.0000 -84.9909 -2.7465 26.8245 14.0309 -22.7788 -2.8400 -0.0000 -0.0000 3.8565 18.3703 -2.3291 -0.7732 -7.1250 0.0000 -0.0000 -6.3133 27.5094 2.6986 0.0000 -0.0000 0.0000 92.2489 -2.7438 9.6702 -16.6857 26.4416 -3.9464 0.0000 -0.0000 -0.9439 -12.5159 -55.2337 10.3348 7.1250 -0.0000 -0.0000 75.5865 -76.4088 -61.6724
19.1475 16.4056 36.4005 178.6720 -1.6629 -153.5930 0.0000 0.0000 0.0000 -19.2208 -15.1866 -18.5787 0.1249 2.2784 6.2756 0.1807 -2.4617 -7.5551 3.1606 -10.9506 -32.1136 0.0000 0.0000 0.0000 17.5697 13.2526 -17.2590 -0.0704 -1.7112 4.7083 -1.0896 -1.4652 -20.3016 -4.0662 12.2480 -36.6149 -6.7072 -1.2791 -30.2182 -0.7006 -0.2990 -2.6729 2.6681 -0.8723 12.8275 2.7320 -1.2000 -2.4493 0.4521 -1.7150 1.2769 -0.3353 -0.8459 0.7737 -0.0000 -0.0000 0.0000 -85.0500 -2.6673 26.9744 14.1126 -22.8954 -2.8718 -0.0000 -0.0000 3.8164 18.2921 -2.6085 -0.8619 -7.1250 0.0000 -0.0000 -6.3594 27.2178 2.7624 -0.0000 -0.0000 0.0000 92.3034 -2.7633 9.7047 -16.7694 26.5528 -3.9837 0.0000 -0.0000 -1.1072 -12.6713 -55.9981 10.5583 7.1250 -0.0000 -0.0000 78.7717 -76.5476 -64.9090
19.1361 16.4156 36.3985 178.3800 -2.2146 -153.9820 0.0000 0.0000 0.0000 -19.5734 -15.5026 -18.1164 0.1310 2.3326 6.4259 0.1838 -2.6283 -7.6150 3.3276 -11.2074 -32.9824 0.0000 0.0000 0.0000 17.3825 12.8279 -16.6572 -0.0613 -1.5974 4.3942 -1.0703 -1.8657 -20.2999 -3.9774 12.1303 -36.1945 -6.7748 -1.4833 -29.7622 -0.7477 -0.5342 -2.6005 2.5741 -0.9653 12.7307 2.8099 -1.2384 -2.6657 0.3344 -1.7779 1.7230 -0.3907 -0.8720 0.9472 -0.0000 0.0000 0.0000 -85.0455 -2.7110 27.1550 14.1266 -22.9154 -2.8772 -0.0000 -0.0000 3.6275 18.2632 -2.6845 -0.8855 -7.1250 0.0000 -0.0000 -6.3778 27.1387 2.7824 -0.0000 0.0000 0.0000 92.3127 -2.7521 9.8205 -16.8245 26.6258 -4.0084 0.0000 -0.0000 -1.3304 -12.6802 -56.3759 10.6115 7.1250 -0.0000 -0.0000 80.3686 -76.5744 -66.5026
19.1336 16.4176 36.3994 178.2860 -2.3607 -154.0490 0.0000 0.0000 0.0000 -19.6692 -15.5934 -18.0555 0.1336 2.3556 6.4895 0.1807 -2.6269 -7.5516 3.3519 -11.2441 -33.1076 0.0000 0.0000 0.0000 17.2917 12.8844 -16.5068 -0.0597 -1.5762 4.3358 -1.0655 -2.0602 -20.3434 -3.9259 12.0612 -35.9487 -6.8605 -1.5573 -29.6420 -0.7363 -0.6105 -2.6110 2.6062 -1.0011 12.6719 2.8673 -1.2015 -2.8323 0.2537 -1.7375 2.0171 -0.4284 -0.8486 1.0674 0.0000 0.0000 0.0000 -85.0607 -2.7617 27.3190 14.1124 -22.8952 -2.8717 -0.0000 -0.0000 3.4932 18.2566 -2.5644 -0.8456 -7.1250 0.0000 -0.0000 -6.3887 27.2643 2.7683 0.0000 0.0000 0.0000 92.2866 -2.7742 9.9286 -16.8821 26.7021 -4.0342 0.0000 -0.0000 -1.5052 -12.6580 -56.4067 10.5964 7.1250 -0.0000 -0.0000 80.4991 -76.5678 -66.6236
19.1381 16.4093 36.4001 178.4050 -2.0871 -153.8180 0.0000 0.0000 0.0000 -19.5218 -15.4328 -18.3442 0.1317 2.3396 6.4451 0.1780 -2.5491 -7.4958 3.2659 -11.1136 -32.6640 0.0000 0.0000 0.0000 17.3345 13.2007 -16.8190 -0.0645 -1.6384 4.5073 -1.0712 -1.9546 -20.3481 -3.9022 12.0292 -35.8352 -6.9552 -1.5019 -29.8665 -0.6062 -0.5390 -2.7186 2.8188 -0.9844 12.6420 2.8211 -1.1363 -3.0192 0.1501 -1.6545 2.3509 -0.4558 -0.8045 1.2055 0.0000 -0.0000 0.0000 -85.2510 -2.7480 27.2737 14.1195 -22.9053 -2.8745 -0.0000 -0.0000 3.0353 19.6722 -4.3908 -1.5678 -7.1250 0.0000 -0.0000 -5.2474 25.3158 2.5096 0.0000 -0.0000 0.0000 92.0946 -2.9274 10.2025 -17.0061 26.8658 -4.0901 0.0000 -0.0000 -1.8475 -14.1245 -57.3330 11.9604 7.1250 -0.0000 -0.0000 84.6388 -77.0982 -71.3209
19.1487 16.3928 36.4074 178.7100 -1.4401 -153.2160 0.0000 0.0000 0.0000 -19.1068 -15.2186 -19.0871 0.1288 2.3131 6.3718 0.1815 -2.2792 -7.5793 3.1571 -10.9452 -32.0951 0.0000 0.0000 0.0000 17.4242 13.7043 -17.7789 -0.0783 -1.8045 4.9656 -1.0889 -1.4008 -20.2679 -3.8845 12.0051 -35.7499 -6.7194 -1.2335 -30.6064 -0.6680 -0.2641 -2.8178 2.7134 -0.8749 12.8263 3.0140 -1.0910 -3.3310 0.0964 -1.6180 2.7473 -0.5104 -0.7812 1.3846 -0.0000 -0.0000 0.0000 -85.0917 -2.8962 26.9741 14.2262 -23.0571 -2.9161 -0.0000 -0.0000 1.5549 23.5276 -9.9386 -4.2974 -7.1250 0.0000 -0.0000 -2.4657 19.1658 1.5209 -0.0000 -0.0000 0.0000 92.2681 -2.9071 10.4131 -17.1344 27.0345 -4.1482 0.0000 -0.0000 -2.1391 -16.5694 -58.7313 14.2686 7.1250 -0.0000 -0.0000 91.7647 -77.7756 -79.2993
19.1490 16.3887 36.4081 178.6290 -1.4500 -153.0880 0.0000 0.0000 0.0000 -19.1675 -15.2195 -19.2541 0.1289 2.3143 6.3752 0.1788 -2.4323 -7.5150 3.0673 -10.8031 -31.6188 0.0000 0.0000 0.0000 17.2944 13.7659 -17.8986 -0.0785 -1.8068 4.9721 -1.0983 -1.3748 -20.3420 -3.8687 11.9836 -35.6741 -6.7295 -1.2458 -30.8049 -0.7432 -0.2586 -2.7967 2.6354 -0.8788 12.9346 3.2179 -1.1112 -3.7529 -0.0092 -1.6744 3.2626 -0.5879 -0.8031 1.6212 -0.0000 0.0000 0.0000 -85.0233 -2.9460 27.0809 14.1922 -23.0088 -2.9028 -0.0000 -0.0000 1.4069 23.7559 -10.2005 -4.4569 -7.1250 0.0000 -0.0000 -2.3140 18.8626 1.4428 -0.0000 0.0000 0.0000 92.3784 -2.8171 10.3215 -17.1187 27.0139 -4.1411 0.0000 -0.0000 -2.2110 -17.2106 -58.4144 14.7816 7.1250 -0.0000 -0.0000 90.6174 -78.0488 -78.4118
19.1501 16.3866 36.4106 178.6080 -1.4225 -152.9870 0.0000 0.0000 0.0000 -19.1666 -15.1668 -19.4167 0.1298 2.3219 6.3962 0.1817 -2.5997 -7.5721 3.0634 -10.7970 -31.5982 0.0000 0.0000 0.0000 17.2507 13.7237 -18.0646 -0.0795 -1.8191 5.0059 -1.1024 -1.2242 -20.3166 -3.8904 12.0131 -35.7782 -6.7770 -1.2490 -30.8958 -0.7404 -0.2498 -2.8171 2.6651 -0.8811 12.9486 3.2560 -1.1852 -3.8942 -0.0246 -1.7839 3.5082 -0.6056 -0.8550 1.7233 0.0000 -0.0000 0.0000 -85.0624 -2.9524 27.1017 14.1712 -22.9789 -2.8946 -0.0000 -0.0000 1.4871 23.7585 -10.1564 -4.4384 -7.1250 0.0000 -0.0000 -2.3103 18.9102 1.4381 0.0000 -0.0000 0.0000 92.3758 -2.7653 10.2254 -17.0629 26.9406 -4.1158 0.0000 -0.0000 -2.1385 -16.4696 -57.5506 14.0081 7.1250 -0.0000 -0.0000 86.2417 -77.9129 -73.8196
19.1513 16.3840 36.4126 178.5710 -1.3924 -152.9040 0.0000 0.0000 0.0000 -19.1778 -15.2335 -19.5149 0.1316 2.3385 6.4422 0.1873 -2.5976 -7.6892 3.1083 -10.8683 -31.8371 0.0000 0.0000 0.0000 17.1976 13.6464 -18.2206 -0.0802 -1.8265 5.0264 -1.1004 -1.2010 -20.2889 -3.9625 12.1103 -36.1233 -6.8465 -1.2667 -30.9446 -0.7208 -0.2617 -2.8614 2.7172 -0.8935 12.9186 3.1961 -1.2768 -3.6648 0.0556 -1.8960 3.3327 -0.5688 -0.9127 1.6250 -0.0000 0.0000 0.0000 -85.0984 -2.8618 27.0883 14.1681 -22.9745 -2.8934 -0.0000 -0.0000 1.5537 23.6052 -10.2003 -4.4252 -7.1250 0.0000 -0.0000 -2.4209 18.8758 1.5088 -0.0000 0.0000 0.0000 92.3343 -2.7761 10.2006 -17.0030 26.8618 -4.0887 0.0000 -0.0000 -1.9965 -15.9633 -57.1338 13.5102 7.1250 -0.0000 -0.0000 84.1395 -77.7638 -71.5486
19.1523 16.3812 36.4137 178.5400 -1.3819 -152.8350 0.0000 0.0000 0.0000 -19.2001 -15.2528 -19.6139 0.1333 2.3537 6.4842 0.1838 -2.5558 -7.6170 3.1187 -10.8847 -31.8920 0.0000 0.0000 0.0000 17.1485 13.6797 -18.3066 -0.0807 -1.8322 5.0421 -1.1012 -1.2515 -20.3166 -3.9758 12.1281 -36.1866 -6.8840 -1.3066 -31.0217 -0.6978 -0.3091 -2.8911 2.7416 -0.9210 12.9215 3.1520 -1.3246 -3.4004 0.1116 -1.9474 3.1182 -0.5399 -0.9408 1.5093 -0.0000 0.0000 0.0000 -85.1113 -2.7767 27.0436 14.1468 -22.9442 -2.8851 -0.0000 -0.0000 1.5390 23.5131 -10.2092 -4.4097 -7.1250 0.0000 -0.0000 -2.4865 18.8740 1.5499 -0.0000 0.0000 0.0000 92.2945 -2.7885 10.1964 -16.9307 26.7663 -4.0561 0.0000 -0.0000 -1.8529 -15.2036 -56.1772 12.7223 7.1250 -0.0000 -0.0000 79.5951 -77.4938 -66.7572
19.1563 16.3754 36.4160 178.5630 -1.3185 -152.6510 0.0000 0.0000 0.0000 -19.1516 -15.0720 -19.9331 0.1360 2.3773 6.5496 0.1761 -2.7232 -7.4538 3.0140 -10.7176 -31.3333 0.0000 0.0000 0.0000 17.1594 13.8282 -18.5224 -0.0830 -1.8586 5.1149 -1.0938 -1.2281 -20.2403 -3.8814 12.0009 -35.7350 -6.9131 -1.3287 -31.2453 -0.6619 -0.3306 -2.9096 2.7823 -0.9410 12.9977 3.1433 -1.3626 -3.3247 0.1067 -1.9946 3.1013 -0.5399 -0.9649 1.4898 0.0000 -0.0000 0.0000 -85.1293 -2.7968 27.0015 14.0812 -22.8506 -2.8596 -0.0000 -0.0000 1.4897 23.5179 -9.9539 -4.3019 -7.1250 0.0000 -0.0000 -2.4732 19.1501 1.5264 0.0000 -0.0000 0.0000 92.2525 -2.7423 10.1673 -16.8453 26.6534 -4.0177 0.0000 -0.0000 -1.8196 -14.8977 -55.3569 12.3457 7.1250 -0.0000 -0.0000 75.8791 -77.3202 -62.9572
19.1573 16.3667 36.4195 178.5820 -1.2996 -152.3240 0.0000 0.0000 0.0000 -19.0064 -15.2589 -20.3270 0.1392 2.4049 6.6261 0.1766 -2.6460 -7.4635 2.9457 -10.6066 -30.9644 0.0000 0.0000 0.0000 17.0765 14.0032 -18.9381 -0.0864 -1.8962 5.2190 -1.0902 -1.2936 -20.2348 -3.9256 12.0608 -35.9473 -6.8610 -1.3629 -31.6014 -0.6190 -0.4018 -2.9643 2.7641 -0.9849 13.0938 3.0282 -1.3894 -3.3031 0.1050 -2.0255 3.2278 -0.5226 -0.9803 1.5269 0.0000 -0.0000 0.0000 -85.2049 -2.7593 26.8589 14.0174 -22.7596 -2.8348 -0.0000 -0.0000 1.4332 23.4264 -9.7129 -4.1809 -7.1250 0.0000 -0.0000 -2.5294 19.4186 1.5461 0.0000 -0.0000 0.0000 92.1349 -2.7602 10.3490 -16.7985 26.5913 -3.9967 0.0000 -0.0000 -1.9664 -15.3550 -55.4056 12.7376 7.1250 -0.0000 -0.0000 76.0829 -77.4982 -63.3481
19.1580 16.3754 36.4172 178.5580 -1.3480 -152.6410 0.0000 0.0000 0.0000 -19.1160 -15.2061 -19.8963 0.1347 2.3656 6.5173 0.1766 -2.6151 -7.4654 2.9654 -10.6388 -31.0710 0.0000 0.0000 0.0000 17.1866 13.7585 -18.5837 -0.0846 -1.8764 5.1641 -1.0914 -1.3225 -20.2580 -4.0835 12.2706 -36.6962 -6.8431 -1.4295 -31.3207 -0.5633 -0.4935 -2.9052 2.7860 -1.0144 13.0529 2.8627 -1.3713 -3.2884 0.0987 -1.9947 3.4039 -0.4975 -0.9652 1.5824 0.0000 -0.0000 0.0000 -85.3371 -2.6768 26.6402 13.9077 -22.6027 -2.7926 -0.0000 -0.0000 1.6563 23.5352 -9.8740 -4.2714 -7.1250 0.0000 -0.0000 -2.4579 19.2351 1.5123 0.0000 -0.0000 0.0000 92.0150 -2.8442 10.5871 -16.8115 26.6086 -4.0025 0.0000 -0.0000 -2.1417 -15.4101 -55.0357 12.7286 7.1250 -0.0000 -0.0000 74.4012 -77.4772 -61.7097
19.1624 16.3659 36.4252 178.5610 -1.2776 -152.2400 0.0000 0.0000 0.0000 -19.0169 -15.1337 -20.5039 0.1399 2.4110 6.6430 0.1726 -2.7793 -7.3785 2.9017 -10.5342 -30.7244 0.0000 0.0000 0.0000 17.1316 13.8923 -19.1686 -0.0920 -1.9563 5.3848 -1.0860 -1.2974 -20.1983 -4.0785 12.2641 -36.6727 -6.9049 -1.4419 -31.6836 -0.5277 -0.4993 -2.9701 2.8458 -1.0353 13.1321 2.8518 -1.3413 -3.5608 0.0173 -1.9643 3.7415 -0.5266 -0.9480 1.7393 -0.0000 0.0000 0.0000 -85.4245 -2.7159 26.6135 13.7431 -22.3663 -2.7296 -0.0000 -0.0000 2.2574 24.1629 -9.9107 -4.4154 -7.1250 0.0000 -0.0000 -2.0131 19.1426 1.2424 -0.0000 0.0000 0.0000 92.0199 -2.8103 10.4663 -16.8106 26.6075 -4.0022 0.0000 -0.0000 -2.0394 -15.3653 -54.7957 12.6551 7.1250 -0.0000 -0.0000 73.3228 -77.4269 -60.6257
